<?xml version="1.0" encoding="UTF-8" standalone="no"?>
<!-- Created with Inkscape (http://www.inkscape.org/) -->

<svg
   xmlns:dc="http://purl.org/dc/elements/1.1/"
   xmlns:cc="http://creativecommons.org/ns#"
   xmlns:rdf="http://www.w3.org/1999/02/22-rdf-syntax-ns#"
   xmlns:svg="http://www.w3.org/2000/svg"
   xmlns="http://www.w3.org/2000/svg"
   xmlns:sodipodi="http://sodipodi.sourceforge.net/DTD/sodipodi-0.dtd"
   xmlns:inkscape="http://www.inkscape.org/namespaces/inkscape"
   width="131.33522mm"
   height="65.568222mm"
   viewBox="0 0 131.33522 65.568222"
   version="1.1"
   id="svg8"
   inkscape:version="0.92.5 (2060ec1f9f, 2020-04-08)"
   sodipodi:docname="disegno.svg">
  <defs
     id="defs2" />
  <sodipodi:namedview
     id="base"
     pagecolor="#ffffff"
     bordercolor="#666666"
     borderopacity="1.0"
     inkscape:pageopacity="0.0"
     inkscape:pageshadow="2"
     inkscape:zoom="0.7"
     inkscape:cx="-92.944116"
     inkscape:cy="52.179131"
     inkscape:document-units="mm"
     inkscape:current-layer="layer1"
     showgrid="false"
     inkscape:window-width="1440"
     inkscape:window-height="864"
     inkscape:window-x="1920"
     inkscape:window-y="0"
     inkscape:window-maximized="1" />
  <metadata
     id="metadata5">
    <rdf:RDF>
      <cc:Work
         rdf:about="">
        <dc:format>image/svg+xml</dc:format>
        <dc:type
           rdf:resource="http://purl.org/dc/dcmitype/StillImage" />
        <dc:title />
      </cc:Work>
    </rdf:RDF>
  </metadata>
  <g
     inkscape:label="Livello 1"
     inkscape:groupmode="layer"
     id="layer1"
     transform="translate(-39.128611,-49.599008)">
    <path
       style="fill:#000000;stroke-width:0.23947239"
       d="m 48.301705,112.47313 c -2.390974,-3.75582 -5.289423,-9.75863 -6.561943,-13.590048 -3.768567,-11.34675 -3.455863,-22.922543 0.925075,-34.244571 1.137678,-2.940193 3.950664,-8.374233 5.863809,-11.327493 l 1.504476,-2.322439 h 3.943446 3.943448 l -0.956522,1.736193 c -1.437355,2.60893 -3.732567,7.92296 -4.909594,11.367006 -2.026107,5.928526 -2.957789,10.917735 -3.187696,17.070355 -0.374808,10.030206 1.929303,19.751807 7.222352,30.472857 l 1.743881,3.5322 h -3.907841 -3.907839 z m 103.457925,2.59272 c 0,-0.0558 0.42556,-0.89089 0.94571,-1.85592 2.23153,-4.14023 4.62918,-10.14996 5.90689,-14.805786 4.0276,-14.675989 2.44199,-28.470192 -5.00989,-43.583998 -0.94161,-1.909802 -1.75042,-3.553167 -1.79731,-3.651963 -0.047,-0.09871 1.67481,-0.179038 3.82607,-0.178473 l 3.9114,0.0012 1.34703,2.094243 c 9.6521,15.006411 12.01937,30.280128 7.04252,45.438732 -1.61039,4.904975 -3.63561,9.093145 -6.91895,14.308485 l -1.46993,2.33486 h -3.89176 c -2.14048,-6e-5 -3.89178,-0.0455 -3.89178,-0.10154 z m -62.132118,-10.185 c -3.98855,-3.99372 -4.004305,-4.01372 -3.278472,-4.15888 2.680324,-0.53607 10.133478,-3.958391 14.08324,-6.466741 8.03536,-5.102912 13.50784,-10.729334 17.17459,-17.657732 3.15962,-5.970159 5.89883,-14.404716 6.99331,-21.533937 0.23702,-1.543183 0.51545,-2.635517 0.67112,-2.631839 0.39839,0.0085 9.97121,2.79402 10.12137,2.94418 0.0713,0.07128 -0.0843,0.702804 -0.34568,1.403375 -0.26135,0.700569 -0.96843,2.997949 -1.5711,5.105321 -2.06037,7.20431 -3.61811,11.348502 -6.39106,17.002529 -3.15708,6.437273 -6.27113,10.712901 -11.51614,15.81171 -5.91178,5.746994 -12.56749,10.196914 -19.991457,13.366064 l -1.941913,0.82898 z M 81.962453,77.056069 C 80.165219,71.979178 76.743331,63.448767 74.97043,59.625678 74.394282,58.383297 74.005564,57.294415 74.10661,57.20597 c 0.221153,-0.193463 8.733528,-3.142764 8.802445,-3.049681 0.628927,0.8496 8.428844,19.805862 8.203586,19.937299 -0.04449,0.02546 -6.404415,2.340286 -8.738105,3.179731 -0.163511,0.05883 -0.348964,-0.03903 -0.412083,-0.217222 z m 19.396307,-5.5162 C 99.089495,64.983323 96.274366,57.602485 94.670792,54.005054 94.324183,53.227466 94.06893,52.568955 94.103564,52.541661 c 0.03462,-0.02829 2.022568,-0.70057 4.417632,-1.496146 l 4.354664,-1.446507 0.95738,2.191511 c 2.32434,5.320558 6.11519,15.212122 6.29398,16.423079 0.0789,0.534117 -0.15613,0.653731 -3.86733,1.969283 -2.17321,0.770347 -4.14041,1.461866 -4.37155,1.536734 -0.23796,0.07722 -0.46768,-9.61e-4 -0.52958,-0.179604 z"
       id="path3724"
       inkscape:connector-curvature="0" />
  </g>
</svg>
